<mxfile host="app.diagrams.net" modified="2023-03-14T01:04:11.209Z" agent="5.0 (Windows NT 10.0; Win64; x64) AppleWebKit/537.36 (KHTML, like Gecko) Chrome/111.0.0.0 Safari/537.36" etag="JY147bRl0Tp1BVrVD3EE" version="21.0.6" type="github">
  <diagram name="페이지-1" id="RF2ZQTDSKfN1Xpy7IFro">
    <mxGraphModel dx="628" dy="328" grid="1" gridSize="10" guides="1" tooltips="1" connect="1" arrows="1" fold="1" page="1" pageScale="1" pageWidth="1169" pageHeight="1654" math="0" shadow="0">
      <root>
        <mxCell id="0" />
        <mxCell id="1" parent="0" />
        <mxCell id="cRbMEcqVbHyRxsntm33S-1" value="&lt;h1&gt;기차 예약&lt;/h1&gt;&lt;p&gt;1. 출발역, 도착역, 출발시간, 인원을 입력하면 해당시간 이후의 열차 중에 출발역과 도착역을 거치는 열차를 반환&lt;/p&gt;&lt;p&gt;&lt;br&gt;&lt;/p&gt;&lt;p&gt;2. 해당 열차 중 좌석이 남아있는 열차를 선택하면 예약할 수 있음. 예약이 성공하면 예약 정보를 반환&lt;/p&gt;" style="text;html=1;strokeColor=none;fillColor=none;spacing=5;spacingTop=-20;whiteSpace=wrap;overflow=hidden;rounded=0;" vertex="1" parent="1">
          <mxGeometry x="30" y="30" width="340" height="190" as="geometry" />
        </mxCell>
        <mxCell id="cRbMEcqVbHyRxsntm33S-4" style="edgeStyle=orthogonalEdgeStyle;rounded=0;orthogonalLoop=1;jettySize=auto;html=1;exitX=0.5;exitY=1;exitDx=0;exitDy=0;entryX=0.5;entryY=0;entryDx=0;entryDy=0;" edge="1" parent="1" source="cRbMEcqVbHyRxsntm33S-2" target="cRbMEcqVbHyRxsntm33S-3">
          <mxGeometry relative="1" as="geometry" />
        </mxCell>
        <mxCell id="cRbMEcqVbHyRxsntm33S-2" value="시작" style="rounded=1;whiteSpace=wrap;html=1;" vertex="1" parent="1">
          <mxGeometry x="360" y="250" width="120" height="40" as="geometry" />
        </mxCell>
        <mxCell id="cRbMEcqVbHyRxsntm33S-7" style="edgeStyle=orthogonalEdgeStyle;rounded=0;orthogonalLoop=1;jettySize=auto;html=1;exitX=0.5;exitY=1;exitDx=0;exitDy=0;entryX=0.5;entryY=0;entryDx=0;entryDy=0;" edge="1" parent="1" source="cRbMEcqVbHyRxsntm33S-3" target="cRbMEcqVbHyRxsntm33S-5">
          <mxGeometry relative="1" as="geometry" />
        </mxCell>
        <mxCell id="cRbMEcqVbHyRxsntm33S-3" value="출발역, 도착역, 출발시간, 인원" style="shape=parallelogram;perimeter=parallelogramPerimeter;whiteSpace=wrap;html=1;fixedSize=1;" vertex="1" parent="1">
          <mxGeometry x="310" y="340" width="220" height="40" as="geometry" />
        </mxCell>
        <mxCell id="cRbMEcqVbHyRxsntm33S-9" style="edgeStyle=orthogonalEdgeStyle;rounded=0;orthogonalLoop=1;jettySize=auto;html=1;exitX=0;exitY=0.5;exitDx=0;exitDy=0;entryX=1;entryY=0.5;entryDx=0;entryDy=0;" edge="1" parent="1" source="cRbMEcqVbHyRxsntm33S-5" target="cRbMEcqVbHyRxsntm33S-8">
          <mxGeometry relative="1" as="geometry" />
        </mxCell>
        <mxCell id="cRbMEcqVbHyRxsntm33S-12" value="" style="edgeStyle=orthogonalEdgeStyle;rounded=0;orthogonalLoop=1;jettySize=auto;html=1;startArrow=none;" edge="1" parent="1" source="cRbMEcqVbHyRxsntm33S-13">
          <mxGeometry relative="1" as="geometry">
            <mxPoint x="250" y="445" as="targetPoint" />
          </mxGeometry>
        </mxCell>
        <mxCell id="cRbMEcqVbHyRxsntm33S-16" style="edgeStyle=orthogonalEdgeStyle;rounded=0;orthogonalLoop=1;jettySize=auto;html=1;entryX=0.5;entryY=0;entryDx=0;entryDy=0;" edge="1" parent="1" source="cRbMEcqVbHyRxsntm33S-5" target="cRbMEcqVbHyRxsntm33S-15">
          <mxGeometry relative="1" as="geometry" />
        </mxCell>
        <mxCell id="cRbMEcqVbHyRxsntm33S-5" value="모두 입력 ?" style="rhombus;whiteSpace=wrap;html=1;" vertex="1" parent="1">
          <mxGeometry x="330" y="420" width="180" height="50" as="geometry" />
        </mxCell>
        <mxCell id="cRbMEcqVbHyRxsntm33S-10" style="edgeStyle=orthogonalEdgeStyle;rounded=0;orthogonalLoop=1;jettySize=auto;html=1;exitX=0.5;exitY=0;exitDx=0;exitDy=0;" edge="1" parent="1" source="cRbMEcqVbHyRxsntm33S-8">
          <mxGeometry relative="1" as="geometry">
            <mxPoint x="320" y="360" as="targetPoint" />
            <Array as="points">
              <mxPoint x="220" y="360" />
            </Array>
          </mxGeometry>
        </mxCell>
        <mxCell id="cRbMEcqVbHyRxsntm33S-8" value="&#39;모두 입력하세요&#39;" style="shape=document;whiteSpace=wrap;html=1;boundedLbl=1;" vertex="1" parent="1">
          <mxGeometry x="160" y="415" width="120" height="60" as="geometry" />
        </mxCell>
        <mxCell id="cRbMEcqVbHyRxsntm33S-13" value="No" style="text;html=1;strokeColor=none;fillColor=none;align=center;verticalAlign=middle;whiteSpace=wrap;rounded=0;" vertex="1" parent="1">
          <mxGeometry x="280" y="420" width="60" height="30" as="geometry" />
        </mxCell>
        <mxCell id="cRbMEcqVbHyRxsntm33S-19" style="edgeStyle=orthogonalEdgeStyle;rounded=0;orthogonalLoop=1;jettySize=auto;html=1;exitX=0;exitY=0.5;exitDx=0;exitDy=0;entryX=1;entryY=0.5;entryDx=0;entryDy=0;" edge="1" parent="1" source="cRbMEcqVbHyRxsntm33S-15" target="cRbMEcqVbHyRxsntm33S-17">
          <mxGeometry relative="1" as="geometry" />
        </mxCell>
        <mxCell id="cRbMEcqVbHyRxsntm33S-27" style="edgeStyle=orthogonalEdgeStyle;rounded=0;orthogonalLoop=1;jettySize=auto;html=1;exitX=0.5;exitY=1;exitDx=0;exitDy=0;entryX=0.5;entryY=0;entryDx=0;entryDy=0;" edge="1" parent="1" source="cRbMEcqVbHyRxsntm33S-15" target="cRbMEcqVbHyRxsntm33S-24">
          <mxGeometry relative="1" as="geometry" />
        </mxCell>
        <mxCell id="cRbMEcqVbHyRxsntm33S-15" value="올바른 시간 ?" style="rhombus;whiteSpace=wrap;html=1;" vertex="1" parent="1">
          <mxGeometry x="327.5" y="510" width="185" height="50" as="geometry" />
        </mxCell>
        <mxCell id="cRbMEcqVbHyRxsntm33S-18" style="edgeStyle=orthogonalEdgeStyle;rounded=0;orthogonalLoop=1;jettySize=auto;html=1;exitX=0;exitY=0.5;exitDx=0;exitDy=0;entryX=0;entryY=0.5;entryDx=0;entryDy=0;" edge="1" parent="1" source="cRbMEcqVbHyRxsntm33S-17" target="cRbMEcqVbHyRxsntm33S-3">
          <mxGeometry relative="1" as="geometry">
            <Array as="points">
              <mxPoint x="140" y="535" />
              <mxPoint x="140" y="360" />
            </Array>
          </mxGeometry>
        </mxCell>
        <mxCell id="cRbMEcqVbHyRxsntm33S-17" value="&#39;잘못된 시간입니다.&#39;" style="shape=document;whiteSpace=wrap;html=1;boundedLbl=1;" vertex="1" parent="1">
          <mxGeometry x="160" y="505" width="120" height="60" as="geometry" />
        </mxCell>
        <mxCell id="cRbMEcqVbHyRxsntm33S-20" value="No" style="text;html=1;strokeColor=none;fillColor=none;align=center;verticalAlign=middle;whiteSpace=wrap;rounded=0;" vertex="1" parent="1">
          <mxGeometry x="280" y="510" width="60" height="30" as="geometry" />
        </mxCell>
        <mxCell id="cRbMEcqVbHyRxsntm33S-21" value="Yes" style="text;html=1;strokeColor=none;fillColor=none;align=center;verticalAlign=middle;whiteSpace=wrap;rounded=0;" vertex="1" parent="1">
          <mxGeometry x="406" y="464" width="60" height="30" as="geometry" />
        </mxCell>
        <mxCell id="cRbMEcqVbHyRxsntm33S-22" value="Yes" style="text;html=1;strokeColor=none;fillColor=none;align=center;verticalAlign=middle;whiteSpace=wrap;rounded=0;" vertex="1" parent="1">
          <mxGeometry x="406" y="555" width="60" height="30" as="geometry" />
        </mxCell>
        <mxCell id="cRbMEcqVbHyRxsntm33S-28" style="edgeStyle=orthogonalEdgeStyle;rounded=0;orthogonalLoop=1;jettySize=auto;html=1;exitX=0;exitY=0.5;exitDx=0;exitDy=0;entryX=1;entryY=0.5;entryDx=0;entryDy=0;" edge="1" parent="1" source="cRbMEcqVbHyRxsntm33S-24" target="cRbMEcqVbHyRxsntm33S-25">
          <mxGeometry relative="1" as="geometry" />
        </mxCell>
        <mxCell id="cRbMEcqVbHyRxsntm33S-48" style="edgeStyle=orthogonalEdgeStyle;rounded=0;orthogonalLoop=1;jettySize=auto;html=1;exitX=0.5;exitY=1;exitDx=0;exitDy=0;entryX=0.5;entryY=0;entryDx=0;entryDy=0;" edge="1" parent="1" source="cRbMEcqVbHyRxsntm33S-24" target="cRbMEcqVbHyRxsntm33S-46">
          <mxGeometry relative="1" as="geometry" />
        </mxCell>
        <mxCell id="cRbMEcqVbHyRxsntm33S-24" value="올바른 인원 ?" style="rhombus;whiteSpace=wrap;html=1;" vertex="1" parent="1">
          <mxGeometry x="327.5" y="600" width="185" height="50" as="geometry" />
        </mxCell>
        <mxCell id="cRbMEcqVbHyRxsntm33S-30" style="edgeStyle=orthogonalEdgeStyle;rounded=0;orthogonalLoop=1;jettySize=auto;html=1;exitX=0;exitY=0.5;exitDx=0;exitDy=0;" edge="1" parent="1" source="cRbMEcqVbHyRxsntm33S-25">
          <mxGeometry relative="1" as="geometry">
            <mxPoint x="320" y="360" as="targetPoint" />
            <Array as="points">
              <mxPoint x="140" y="625" />
              <mxPoint x="140" y="360" />
            </Array>
          </mxGeometry>
        </mxCell>
        <mxCell id="cRbMEcqVbHyRxsntm33S-25" value="&#39;잘못된 인원입니다.&#39;" style="shape=document;whiteSpace=wrap;html=1;boundedLbl=1;" vertex="1" parent="1">
          <mxGeometry x="160" y="595" width="120" height="60" as="geometry" />
        </mxCell>
        <mxCell id="cRbMEcqVbHyRxsntm33S-29" value="No" style="text;html=1;strokeColor=none;fillColor=none;align=center;verticalAlign=middle;whiteSpace=wrap;rounded=0;" vertex="1" parent="1">
          <mxGeometry x="280" y="600" width="60" height="30" as="geometry" />
        </mxCell>
        <mxCell id="cRbMEcqVbHyRxsntm33S-31" value="&lt;span style=&quot;font-weight: normal;&quot;&gt;&lt;font style=&quot;font-size: 9px;&quot;&gt;Index; index &amp;lt; trains.length; index++&lt;/font&gt;&lt;/span&gt;" style="swimlane;whiteSpace=wrap;html=1;align=right;" vertex="1" parent="1">
          <mxGeometry x="260" y="770" width="320" height="390" as="geometry">
            <mxRectangle x="320" y="710" width="200" height="30" as="alternateBounds" />
          </mxGeometry>
        </mxCell>
        <mxCell id="cRbMEcqVbHyRxsntm33S-54" style="edgeStyle=orthogonalEdgeStyle;rounded=0;orthogonalLoop=1;jettySize=auto;html=1;exitX=0.5;exitY=1;exitDx=0;exitDy=0;entryX=0.5;entryY=0;entryDx=0;entryDy=0;" edge="1" parent="cRbMEcqVbHyRxsntm33S-31" source="cRbMEcqVbHyRxsntm33S-34" target="cRbMEcqVbHyRxsntm33S-51">
          <mxGeometry relative="1" as="geometry" />
        </mxCell>
        <mxCell id="cRbMEcqVbHyRxsntm33S-34" value="&lt;font style=&quot;font-size: 10px;&quot;&gt;해당 인덱스 요소의 정착역 리스트 가져오기&lt;/font&gt;" style="rounded=0;whiteSpace=wrap;html=1;" vertex="1" parent="cRbMEcqVbHyRxsntm33S-31">
          <mxGeometry x="60" y="40" width="200" height="30" as="geometry" />
        </mxCell>
        <mxCell id="cRbMEcqVbHyRxsntm33S-35" value="&lt;span style=&quot;font-weight: normal; font-size: 9px;&quot;&gt;&lt;font style=&quot;font-size: 9px;&quot;&gt;stopStationIndex; stopStationIndex &amp;lt; stopStations.length; stopStationIndex++&lt;/font&gt;&lt;/span&gt;" style="swimlane;whiteSpace=wrap;html=1;startSize=30;fontSize=9;align=right;" vertex="1" parent="cRbMEcqVbHyRxsntm33S-31">
          <mxGeometry x="40" y="160" width="240" height="180" as="geometry" />
        </mxCell>
        <mxCell id="cRbMEcqVbHyRxsntm33S-42" style="edgeStyle=orthogonalEdgeStyle;rounded=0;orthogonalLoop=1;jettySize=auto;html=1;exitX=0.5;exitY=1;exitDx=0;exitDy=0;entryX=0.5;entryY=0;entryDx=0;entryDy=0;" edge="1" parent="cRbMEcqVbHyRxsntm33S-35" source="cRbMEcqVbHyRxsntm33S-36" target="cRbMEcqVbHyRxsntm33S-41">
          <mxGeometry relative="1" as="geometry" />
        </mxCell>
        <mxCell id="cRbMEcqVbHyRxsntm33S-45" style="edgeStyle=orthogonalEdgeStyle;rounded=0;orthogonalLoop=1;jettySize=auto;html=1;exitX=0;exitY=0.5;exitDx=0;exitDy=0;" edge="1" parent="cRbMEcqVbHyRxsntm33S-35" source="cRbMEcqVbHyRxsntm33S-36">
          <mxGeometry relative="1" as="geometry">
            <mxPoint x="10" y="40" as="targetPoint" />
          </mxGeometry>
        </mxCell>
        <mxCell id="cRbMEcqVbHyRxsntm33S-36" value="&lt;p style=&quot;font-size: 9px;&quot;&gt;&lt;font face=&quot;Tahoma&quot; style=&quot;font-size: 9px;&quot;&gt;출발역과 요소가 같은지?&lt;/font&gt;&lt;/p&gt;" style="rhombus;whiteSpace=wrap;html=1;fontSize=9;" vertex="1" parent="cRbMEcqVbHyRxsntm33S-35">
          <mxGeometry x="40" y="55" width="160" height="50" as="geometry" />
        </mxCell>
        <mxCell id="cRbMEcqVbHyRxsntm33S-53" style="edgeStyle=orthogonalEdgeStyle;rounded=0;orthogonalLoop=1;jettySize=auto;html=1;exitX=0.5;exitY=1;exitDx=0;exitDy=0;" edge="1" parent="cRbMEcqVbHyRxsntm33S-35" source="cRbMEcqVbHyRxsntm33S-41">
          <mxGeometry relative="1" as="geometry">
            <mxPoint x="120.27586206896558" y="210" as="targetPoint" />
          </mxGeometry>
        </mxCell>
        <mxCell id="cRbMEcqVbHyRxsntm33S-41" value="&lt;font style=&quot;font-size: 10px;&quot;&gt;동일 출발역의 인덱스 번호 기입&lt;/font&gt;" style="rounded=0;whiteSpace=wrap;html=1;fontSize=11;" vertex="1" parent="cRbMEcqVbHyRxsntm33S-35">
          <mxGeometry x="40" y="135" width="160" height="30" as="geometry" />
        </mxCell>
        <mxCell id="cRbMEcqVbHyRxsntm33S-55" style="edgeStyle=orthogonalEdgeStyle;rounded=0;orthogonalLoop=1;jettySize=auto;html=1;exitX=0.5;exitY=1;exitDx=0;exitDy=0;entryX=0.5;entryY=0;entryDx=0;entryDy=0;" edge="1" parent="cRbMEcqVbHyRxsntm33S-31" source="cRbMEcqVbHyRxsntm33S-51" target="cRbMEcqVbHyRxsntm33S-35">
          <mxGeometry relative="1" as="geometry" />
        </mxCell>
        <mxCell id="cRbMEcqVbHyRxsntm33S-51" value="&lt;font style=&quot;font-size: 10px;&quot;&gt;동일한 출발역의 인덱스 번호&lt;/font&gt;" style="rounded=0;whiteSpace=wrap;html=1;" vertex="1" parent="cRbMEcqVbHyRxsntm33S-31">
          <mxGeometry x="60" y="90" width="200" height="30" as="geometry" />
        </mxCell>
        <mxCell id="cRbMEcqVbHyRxsntm33S-33" value="Yes" style="text;html=1;strokeColor=none;fillColor=none;align=center;verticalAlign=middle;whiteSpace=wrap;rounded=0;" vertex="1" parent="1">
          <mxGeometry x="480" y="646" width="60" height="30" as="geometry" />
        </mxCell>
        <mxCell id="cRbMEcqVbHyRxsntm33S-50" style="edgeStyle=orthogonalEdgeStyle;rounded=0;orthogonalLoop=1;jettySize=auto;html=1;exitX=0.5;exitY=1;exitDx=0;exitDy=0;entryX=0.5;entryY=0;entryDx=0;entryDy=0;" edge="1" parent="1" source="cRbMEcqVbHyRxsntm33S-46" target="cRbMEcqVbHyRxsntm33S-34">
          <mxGeometry relative="1" as="geometry" />
        </mxCell>
        <mxCell id="cRbMEcqVbHyRxsntm33S-46" value="&lt;span style=&quot;font-size: 10px;&quot;&gt;가능한 열차정보를 저장할 리스트 생성&lt;/span&gt;" style="rounded=0;whiteSpace=wrap;html=1;" vertex="1" parent="1">
          <mxGeometry x="320" y="700" width="200" height="30" as="geometry" />
        </mxCell>
        <mxCell id="cRbMEcqVbHyRxsntm33S-57" style="edgeStyle=orthogonalEdgeStyle;rounded=0;orthogonalLoop=1;jettySize=auto;html=1;exitX=0;exitY=0.5;exitDx=0;exitDy=0;" edge="1" parent="1" source="cRbMEcqVbHyRxsntm33S-56">
          <mxGeometry relative="1" as="geometry">
            <mxPoint x="280" y="810" as="targetPoint" />
            <Array as="points">
              <mxPoint x="280" y="1230" />
              <mxPoint x="280" y="816" />
            </Array>
          </mxGeometry>
        </mxCell>
        <mxCell id="cRbMEcqVbHyRxsntm33S-56" value="동일한 출발역이 &lt;br&gt;저장됐는지?" style="rhombus;whiteSpace=wrap;html=1;" vertex="1" parent="1">
          <mxGeometry x="330" y="1200" width="180" height="60" as="geometry" />
        </mxCell>
        <mxCell id="cRbMEcqVbHyRxsntm33S-58" value="&lt;span style=&quot;font-weight: normal; font-size: 9px;&quot;&gt;&lt;font style=&quot;font-size: 9px;&quot;&gt;stopStationIndex; stopStationIndex &amp;lt; stopStations.length; stopStationIndex++&lt;/font&gt;&lt;/span&gt;" style="swimlane;whiteSpace=wrap;html=1;startSize=30;fontSize=9;align=right;" vertex="1" parent="1">
          <mxGeometry x="300" y="1280" width="240" height="340" as="geometry" />
        </mxCell>
        <mxCell id="cRbMEcqVbHyRxsntm33S-59" style="edgeStyle=orthogonalEdgeStyle;rounded=0;orthogonalLoop=1;jettySize=auto;html=1;exitX=0.5;exitY=1;exitDx=0;exitDy=0;entryX=0.5;entryY=0;entryDx=0;entryDy=0;" edge="1" parent="cRbMEcqVbHyRxsntm33S-58" source="cRbMEcqVbHyRxsntm33S-61">
          <mxGeometry relative="1" as="geometry">
            <mxPoint x="120" y="135" as="targetPoint" />
          </mxGeometry>
        </mxCell>
        <mxCell id="cRbMEcqVbHyRxsntm33S-60" style="edgeStyle=orthogonalEdgeStyle;rounded=0;orthogonalLoop=1;jettySize=auto;html=1;exitX=0;exitY=0.5;exitDx=0;exitDy=0;" edge="1" parent="cRbMEcqVbHyRxsntm33S-58" source="cRbMEcqVbHyRxsntm33S-61">
          <mxGeometry relative="1" as="geometry">
            <mxPoint x="20" y="40" as="targetPoint" />
            <Array as="points">
              <mxPoint x="20" y="80" />
              <mxPoint x="20" y="40" />
            </Array>
          </mxGeometry>
        </mxCell>
        <mxCell id="cRbMEcqVbHyRxsntm33S-61" value="&lt;p style=&quot;font-size: 9px;&quot;&gt;&lt;font face=&quot;Tahoma&quot; style=&quot;font-size: 9px;&quot;&gt;도착역과 요소가 같은지?&lt;/font&gt;&lt;/p&gt;" style="rhombus;whiteSpace=wrap;html=1;fontSize=9;" vertex="1" parent="cRbMEcqVbHyRxsntm33S-58">
          <mxGeometry x="40" y="55" width="160" height="50" as="geometry" />
        </mxCell>
        <mxCell id="cRbMEcqVbHyRxsntm33S-66" style="edgeStyle=orthogonalEdgeStyle;rounded=0;orthogonalLoop=1;jettySize=auto;html=1;exitX=0;exitY=0.5;exitDx=0;exitDy=0;" edge="1" parent="cRbMEcqVbHyRxsntm33S-58" source="cRbMEcqVbHyRxsntm33S-65">
          <mxGeometry relative="1" as="geometry">
            <mxPoint x="20" y="40" as="targetPoint" />
            <Array as="points">
              <mxPoint x="20" y="175" />
              <mxPoint x="20" y="40" />
            </Array>
          </mxGeometry>
        </mxCell>
        <mxCell id="cRbMEcqVbHyRxsntm33S-65" value="&lt;p style=&quot;font-size: 9px; line-height: 10%;&quot;&gt;&lt;font face=&quot;Tahoma&quot; style=&quot;font-size: 9px;&quot;&gt;도착역 인덱스가&amp;nbsp;&lt;/font&gt;&lt;/p&gt;&lt;p style=&quot;font-size: 9px; line-height: 10%;&quot;&gt;&lt;font face=&quot;Tahoma&quot; style=&quot;font-size: 9px;&quot;&gt;출발역 인덱스보다 큰지?&lt;/font&gt;&lt;/p&gt;" style="rhombus;whiteSpace=wrap;html=1;fontSize=9;" vertex="1" parent="cRbMEcqVbHyRxsntm33S-58">
          <mxGeometry x="40" y="150" width="160" height="50" as="geometry" />
        </mxCell>
        <mxCell id="cRbMEcqVbHyRxsntm33S-67" value="가능한 열차 리스트에 해당 열차 객체 추가" style="rounded=0;whiteSpace=wrap;html=1;fontSize=9;" vertex="1" parent="cRbMEcqVbHyRxsntm33S-58">
          <mxGeometry x="40" y="230" width="160" height="40" as="geometry" />
        </mxCell>
      </root>
    </mxGraphModel>
  </diagram>
</mxfile>
